<svg enable-background="new 0 0 106 34" viewBox="0 0 106 34" width="106" height="34" xmlns="http://www.w3.org/2000/svg"><g clip-rule="evenodd" fill="#1a212b" fill-rule="evenodd"><path d="m37.3 12.2h-4.7v-5c0-.1-.1-.3-.3-.3h-4.7c-.1 0-.3.1-.3.3v4.9h-3.3c-.1 0-.3.1-.3.3v3.5c0 .1.1.3.3.3h3.3v11.6c0 2.3.5 3.9 1.6 4.6 1.1.8 2.5 1.1 4.3 1.1h2.2c.5 0 1.1 0 1.8-.1.1 0 .2-.1.2-.3v-3.6c0-.1-.1-.3-.3-.3h-2.1c-.9 0-1.5-.2-1.8-.5-.4-.3-.6-1-.6-2.2v-10.3h4.7c.1 0 .3-.1.3-.3v-3.5c0-.1-.1-.2-.3-.2z"/><path d="m57.3 14.7c-1-1-2.2-1.7-3.6-2.2s-2.8-.8-4.4-.8-3 .3-4.4.8-2.6 1.3-3.6 2.2c-1 1-1.8 2.1-2.4 3.5s-.9 2.8-.9 4.6.3 3.3.9 4.7 1.4 2.6 2.4 3.5c1 1 2.2 1.7 3.6 2.2s2.8.8 4.4.8c1.5 0 3-.3 4.4-.8s2.6-1.3 3.6-2.3 1.8-2.2 2.4-3.5c.6-1.4.9-2.9.9-4.6s-.3-3.2-.9-4.6-1.4-2.6-2.4-3.5zm-3.8 13c-1.1 1.3-2.5 1.9-4.2 1.9-1.7 0-3.1-.6-4.2-1.9s-1.6-3-1.6-4.9c0-2 .5-3.5 1.6-4.8 1.1-1.2 2.5-1.8 4.2-1.8s3.1.6 4.2 1.9c1.1 1.2 1.6 2.8 1.6 4.7 0 2-.5 3.6-1.6 4.9z"/><path d="m80.9 14.6c-1-.9-2.1-1.7-3.4-2.2s-2.7-.7-4.1-.7-2.8.3-4.1.8-2.5 1.2-3.5 2.2-1.8 2.1-2.4 3.5-.9 2.8-.9 4.6.3 3.3.9 4.7 1.4 2.6 2.4 3.6 2.2 1.7 3.5 2.2 2.8.8 4.3.8c1.1 0 2.2-.1 3.3-.4s2.1-.7 3-1.2 1.8-1.2 2.5-2.1c.6-.8 1.1-1.7 1.4-2.7.1-.2-.1-.3-.2-.3h-4.7c-.1 0-.2.1-.2.1-.5.9-1.2 1.5-2 1.8-.9.4-1.9.6-2.8.6-1.5 0-2.8-.5-4-1.5-1.1-1-1.8-2.3-2-4h16c.1 0 .3-.1.3-.3v-.9c0-1.9-.3-3.6-.9-5-.7-1.5-1.5-2.7-2.4-3.6zm-13.2 6c.2-1.5.8-2.7 1.9-3.5 1-.9 2.3-1.3 3.7-1.3 1.5 0 2.7.4 3.7 1.3s1.5 2 1.7 3.5z"/><path d="m97.7 3.8c-.5 0-1 0-1.4-.1-.5 0-1.1 0-1.8 0-2 0-3.5.4-4.7 1.3s-1.8 2.5-1.8 4.8v2.3h-3.4c-.1 0-.3.1-.3.3v3.5c0 .1.1.3.3.3h3.4v17.1c0 .1.1.3.3.3h4.6c.1 0 .3-.1.3-.3v-17.1h4.6c.1 0 .3-.1.3-.3v-3.5c0-.1-.1-.3-.3-.3h-4.6v-2c0-1 .2-1.6.7-1.9s1-.5 1.7-.5h1.2.9c.1 0 .3-.1.3-.3v-3.3c0-.2-.1-.3-.3-.3z"/><path d="m105.7 3.8h-4.7c-.1 0-.3.1-.3.3v29.2c0 .1.1.3.3.3h4.8c.1 0 .3-.1.3-.3v-29.2c-.1-.2-.2-.3-.4-.3z"/><path d="m18.3 5.2c.1-.1.1-.2.1-.2l-.8-2.5c-.1-.2-.3-.2-.4-.1l-4.9 4.9v-5.8c0-.1-.1-.2-.1-.2l-2.5-1.3c-.2-.1-.4 0-.4.2v7l-4.1-4c-.1-.1-.2-.1-.3-.1l-2.5.8c-.2.1-.2.3-.1.4l4.9 4.9h-5.7c-.1 0-.2.1-.2.1l-1.3 2.5c-.1.2 0 .4.2.4h7l-4.1 4.1c-.1.1-.1.2-.1.3l.9 2.4c.1.2.3.2.4.1z"/><path d="m21.2 9.3h-4.9c-.1 0-.1 0-.2.1l-6.8 6.8s-.1.1-.1.2v3.6c0 .1.1.2.1.2l2.4 1.2c.2.1.4 0 .4-.2v-7l4.1 4.1c.1.1.2.1.3.1l2.5-.8c.2-.1.2-.3.1-.4l-4.9-4.9h5.8c.1 0 .2-.1.2-.1l1.2-2.4c.1-.3 0-.5-.2-.5z"/></g></svg>
